<!DOCTYPE svg PUBLIC "-//W3C//DTD SVG 20010904//EN" "http://www.w3.org/TR/2001/REC-SVG-20010904/DTD/svg10.dtd">
<svg version="1.0" xmlns="http://www.w3.org/2000/svg" width="64px" height="34px" viewBox="0 0 640 340" preserveAspectRatio="xMidYMid meet">
<g id="layer1" fill="#ffffff" stroke="none">
 <path d="M280 324 c0 -13 -3 -14 -14 -5 -10 8 -39 7 -117 -4 -158 -24 -149 -20 -149 -60 0 -59 22 -184 34 -194 7 -5 46 -3 101 5 113 17 115 17 115 0 0 -8 4 -17 8 -20 16 -10 283 -47 315 -44 l32 3 19 138 c14 101 16 141 8 149 -13 13 -233 47 -304 48 -38 0 -48 -3 -48 -16z m-125 -73 c3 -5 1 -12 -5 -16 -5 -3 -10 1 -10 9 0 18 6 21 15 7z m313 -12 c-2 -6 -8 -10 -13 -10 -5 0 -11 4 -13 10 -2 6 4 11 13 11 9 0 15 -5 13 -11z m-293 -45 c28 -18 33 -49 9 -58 -27 -10 -52 -7 -58 9 -4 13 -2 13 14 5 43 -23 54 -1 18 37 -25 27 -18 30 17 7z m285 -6 c0 -6 9 -22 21 -34 17 -18 19 -26 9 -44 -9 -17 -19 -20 -47 -18 -36 3 -65 30 -49 45 4 4 12 0 17 -10 6 -9 21 -17 34 -17 31 0 34 29 5 55 -11 10 -17 22 -14 26 8 13 24 11 24 -3z"/>
 </g>

</svg>